<svg width="200" height="144.00000999819954" viewBox="0 -14 200 144.00000999819954" xmlns="http://www.w3.org/2000/svg">
  <defs id="SvgjsDefs13098">
    <linearGradient id="SvgjsLinearGradient13105">
      <stop id="SvgjsStop13106" stop-color="#ee2a7b" offset="0"></stop>
      <stop id="SvgjsStop13107" stop-color="#ff7db8" offset="1"></stop>
    </linearGradient>
    <linearGradient id="SvgjsLinearGradient13108">
      <stop id="SvgjsStop13109" stop-color="#26275f" offset="0"></stop>
      <stop id="SvgjsStop13110" stop-color="#813e96" offset="0.14"></stop>
      <stop id="SvgjsStop13111" stop-color="#2e64af" offset="0.29"></stop>
      <stop id="SvgjsStop13112" stop-color="#3faa49" offset="0.5"></stop>
      <stop id="SvgjsStop13113" stop-color="#f2e64a" offset="0.71"></stop>
      <stop id="SvgjsStop13114" stop-color="#f2903b" offset="0.86"></stop>
      <stop id="SvgjsStop13115" stop-color="#ed4533" offset="1"></stop>
    </linearGradient>
  </defs>
  <g id="SvgjsG13099" featurekey="rootContainer"
     transform="matrix(2.620968024142729,0,0,2.620968024142729,34.02619803136256,-14)"
     fill="url(#SvgjsLinearGradient13105)">
    <path xmlns="http://www.w3.org/2000/svg"
          d="M24.813 49.406l-2.723-2.722 2.723-2.723 2.722 2.723zM49.403 24.798l-2.722 2.722-2.723-2.722 2.723-2.723zM24.798.194l2.722 2.722-2.722 2.723-2.723-2.723zM.194 24.795l2.722-2.722 2.723 2.722-2.723 2.723z"></path>
    <path xmlns="http://www.w3.org/2000/svg"
          d="M24.79 47.04A22.24 22.24 0 1 1 47.03 24.8a22.27 22.27 0 0 1-22.24 22.24zm0-44.1A21.86 21.86 0 1 0 46.65 24.8 21.88 21.88 0 0 0 24.79 2.94z"></path>
    <path xmlns="http://www.w3.org/2000/svg"
          d="M24.79 49.6a24.8 24.8 0 1 1 24.8-24.8 24.83 24.83 0 0 1-24.8 24.8zm0-49.21A24.41 24.41 0 1 0 49.2 24.8 24.44 24.44 0 0 0 24.79.42z"></path>
  </g>
  <g id="SvgjsG13100" featurekey="symbolFeature-0"
     transform="matrix(2.541176470588235,0,0,2.541176470588235,70,17.91764705882353)"
     fill="url(#SvgjsLinearGradient13108)">
    <g xmlns="http://www.w3.org/2000/svg">
      <path d="M9,12H3v3h9C10.346,15,9,13.654,9,12z"></path>
      <path d="M12,15h9v-3h-6C15,13.654,13.654,15,12,15z"></path>
      <rect x="3" y="16" width="18" height="3"></rect>
      <path
        d="M2.025,9C2.279,6.201,4.636,4,7.5,4h9c2.864,0,5.221,2.201,5.475,5H24V6.5C24,4.019,21.981,2,19.5,2h-15   C2.019,2,0,4.019,0,6.5V9H2.025z"></path>
      <path
        d="M15,10v1h6.5c0.276,0,0.5,0.224,0.5,0.5v8c0,0.276-0.224,0.5-0.5,0.5h-19C2.224,20,2,19.776,2,19.5v-8   C2,11.224,2.224,11,2.5,11H9v-1H0v0.5v11C0,21.776,0.224,22,0.5,22h23c0.276,0,0.5-0.224,0.5-0.5v-11V10H15z"></path>
      <path
        d="M20.708,7.951C20.645,7.981,20.575,8,20.5,8h-17C3.425,8,3.355,7.981,3.292,7.951C3.169,8.284,3.091,8.636,3.051,9H9.5h5   h6.449C20.909,8.636,20.831,8.284,20.708,7.951z"></path>
      <path d="M3.762,7h16.476C19.43,5.795,18.057,5,16.5,5h-9C5.943,5,4.57,5.795,3.762,7z"></path>
      <path
        d="M10,12c0,1.103,0.897,2,2,2s2-0.897,2-2v-2h-4V12z M12,10.5c0.551,0,1,0.449,1,1c0,0.365-0.207,0.672-0.5,0.846V12.5   c0,0.276-0.224,0.5-0.5,0.5s-0.5-0.224-0.5-0.5v-0.154C11.207,12.172,11,11.865,11,11.5C11,10.949,11.449,10.5,12,10.5z"></path>
    </g>
  </g>
  <g id="SvgjsG13101" featurekey="nameFeature-0"
     transform="matrix(0.4900627982693461,0,0,0.4900627982693461,-1.8426363504992904,87.51156959780094)" fill="#ffffff">
    <path
      d="M12.36 13.600000000000001 c4.44 0 7.12 2.52 7.12 7.2 l0 5.04 c0 4.28 -2.64 7.16 -7.12 7.16 l-3.36 0 l0 6.64 c0 0.2 -0.16 0.36 -0.36 0.36 l-4.6 0 c-0.16 0 -0.28 -0.16 -0.28 -0.36 l0 -25.68 c0 -0.2 0.12 -0.36 0.28 -0.36 l8.32 0 z M14.24 24.64 l0 -2.64 c0 -2.76 -1.28 -3.04 -4.08 -3.04 l-1.16 0 l0 8.8 l1.16 0 c2.2 0 4.08 -0.4 4.08 -3.12 z M17.08 25.560000000000002 l0 -5 c0 -4.4 -3.4 -4.76 -5.24 -4.76 l-5.4 0 c-0.08 0 -0.24 0.12 -0.24 0.24 l0 21.52 c0 0.28 0.48 0.28 0.48 0 l0 -6.8 l4.8 0 c3.52 0 5.6 -1.24 5.6 -5.2 z M6.68 16.32 l5.16 0 c4.44 0 4.72 2.92 4.72 4.24 l0 5 c0 4.08 -2.56 4.64 -5.08 4.64 l-4.8 0 l0 -13.88 z M30.869 13.84 c0.04 -0.12 0.12 -0.24 0.28 -0.24 l4.96 0 c0.16 0 0.24 0.12 0.28 0.24 l6.92 25.72 c0.04 0.24 -0.12 0.44 -0.36 0.44 l-4.56 0 c-0.12 0 -0.24 -0.08 -0.28 -0.24 l-1.56 -5.6 l-5.84 0 l-1.52 5.6 c-0.04 0.16 -0.12 0.24 -0.28 0.24 l-4.6 0 c-0.24 0 -0.4 -0.2 -0.36 -0.44 z M31.988999999999997 29.2 l3.32 0 l-1.72 -6.04 z M38.149 31.560000000000002 l1.84 6 c0.08 0.24 0.52 0.2 0.4 -0.12 l-6.4 -21.28 c-0.12 -0.52 -0.8 -0.56 -0.92 0 l-6.2 21.28 c-0.12 0.28 0.32 0.4 0.44 0.16 l1.76 -6.04 l9.08 0 z M29.189 31.04 l4.36 -14.72 l4.44 14.72 l-8.8 0 z M53.778 18.6 l-5.68 0 c-0.2 0 -0.36 -0.16 -0.36 -0.36 l0 -4.28 c0 -0.2 0.16 -0.36 0.36 -0.36 l16.68 0 c0.2 0 0.36 0.16 0.36 0.36 l0 4.28 c0 0.2 -0.16 0.36 -0.36 0.36 l-5.68 0 l0 21.04 c0 0.2 -0.16 0.36 -0.36 0.36 l-4.6 0 c-0.2 0 -0.36 -0.16 -0.36 -0.36 l0 -21.04 z M62.337999999999994 15.8 l-12.08 0 c-0.28 0 -0.28 0.52 0 0.52 l5.92 0 l0 21.2 c0 0.28 0.52 0.28 0.52 0 l0 -21.2 l5.64 0 c0.4 0 0.36 -0.52 0 -0.52 z M83.20700000000001 24 l0 -10.04 c0 -0.2 0.16 -0.36 0.36 -0.36 l4.56 0 c0.2 0 0.36 0.16 0.36 0.36 l0 25.68 c0 0.2 -0.16 0.36 -0.36 0.36 l-4.56 0 c-0.2 0 -0.36 -0.16 -0.36 -0.36 l0 -10.64 l-6.48 0 l0 10.64 c0 0.2 -0.16 0.36 -0.36 0.36 l-4.56 0 c-0.2 0 -0.32 -0.16 -0.32 -0.36 l0 -25.68 c0 -0.2 0.12 -0.36 0.32 -0.36 l4.56 0 c0.2 0 0.36 0.16 0.36 0.36 l0 10.04 l6.48 0 z M73.807 37.52 c0 0.32 0.52 0.28 0.52 0 l0 -10.72 l11.24 0 l0 10.72 c0 0.28 0.44 0.32 0.44 0 l0 -21.52 c0 -0.28 -0.44 -0.36 -0.44 0 l0 10.24 l-11.24 0 l0 -10.24 c0 -0.28 -0.52 -0.28 -0.52 0 l0 21.52 z M121.105 13.239999999999998 c3.44 0 5.84 0.76 7.36 2.4 c1.2 1.32 1.76 3.2 1.76 5.88 l0 10.52 c0 2.76 -0.56 4.68 -1.76 5.96 c-1.56 1.6 -3.92 2.4 -7.36 2.4 c-3.56 0 -5.88 -0.8 -7.4 -2.4 c-1.16 -1.28 -1.8 -3.2 -1.8 -5.96 l0 -10.52 c0 -2.68 0.64 -4.56 1.8 -5.92 c1.56 -1.6 3.92 -2.36 7.4 -2.36 z M124.905 30.84 l0 -8 c0 -3.52 -1.88 -4.24 -3.6 -4.24 l-0.48 0 c-2.56 0 -3.56 1.64 -3.56 4.24 l0 8 c0 3.52 1.88 4.28 3.56 4.28 l0.48 0 c2.56 0 3.56 -1.72 3.6 -4.28 z M114.42500000000001 21.8 l0 9.92 c0 1.88 0.48 3.44 1.6 4.6 c1.04 1.04 2.64 1.6 4.6 1.6 l1.04 0 c3.76 0 6.2 -2.4 6.2 -6.2 l0 -9.92 c0 -4.08 -2.16 -6.28 -6.2 -6.28 l-1.04 0 c-4.08 0 -6.2 2.2 -6.2 6.28 z M121.665 37.4 l-1.04 0 c-1.88 0 -3.28 -0.48 -4.28 -1.48 s-1.52 -2.4 -1.52 -4.2 l0 -9.92 c0 -3.8 2.04 -5.8 5.8 -5.8 l1.04 0 c3.8 0 5.68 1.96 5.68 5.8 l0 9.92 c0 1.68 -0.52 3.2 -1.6 4.24 c-1.04 0.88 -2.44 1.44 -4.08 1.44 z M140.374 16 l0 21.56 c0 0.28 0.48 0.36 0.48 0 l0 -10.76 l7.36 0 c0.4 0 0.4 -0.56 0 -0.56 l-7.36 0 l0 -9.92 l8.96 0 c0.28 0 0.36 -0.52 0 -0.52 l-9.2 0 c-0.12 0 -0.24 0.04 -0.24 0.2 z M142.894 40 l-4.6 0 c-0.2 0 -0.32 -0.16 -0.32 -0.36 l0 -25.68 c0 -0.2 0.12 -0.36 0.32 -0.36 l13.6 0 c0.2 0 0.36 0.16 0.36 0.36 l0 4.28 c0 0.2 -0.16 0.36 -0.36 0.36 l-8.64 0 l0 5.44 l6.72 0 c0.2 0 0.32 0.16 0.32 0.36 l0 4.36 c0 0.2 -0.12 0.36 -0.32 0.36 l-6.72 0 l0 10.52 c0 0.2 -0.16 0.36 -0.36 0.36 z M174.632 40 c-0.2 0 -0.32 -0.16 -0.32 -0.36 l0 -25.68 c0 -0.2 0.12 -0.36 0.32 -0.36 l13.6 0 c0.2 0 0.36 0.16 0.36 0.36 l0 4.28 c0 0.2 -0.16 0.36 -0.36 0.36 l-8.64 0 l0 5.44 l6.72 0 c0.2 0 0.32 0.16 0.32 0.36 l0 4.36 c0 0.2 -0.12 0.36 -0.32 0.36 l-6.72 0 l0 5.88 l8.64 0 c0.2 0 0.36 0.16 0.36 0.36 l0 4.28 c0 0.2 -0.16 0.36 -0.36 0.36 l-13.6 0 z M176.632 16.12 l0 21.28 c0 0.24 0.16 0.32 0.32 0.32 l9.2 0 c0.36 0 0.28 -0.48 0 -0.48 l-9 0 l0 -10.44 l7.36 0 c0.24 0 0.24 -0.56 0 -0.56 l-7.36 0 l0 -9.92 l9 0 c0.28 0 0.36 -0.52 0 -0.52 l-9.2 0 c-0.16 0 -0.32 0.12 -0.32 0.32 z M207.22099999999998 13.600000000000001 l4.56 0 c0.24 0 0.4 0.24 0.32 0.52 l-5.2 11.72 l6.28 13.68 c0.12 0.24 -0.04 0.48 -0.28 0.48 l-4.52 0 c-0.16 0 -0.24 -0.04 -0.28 -0.2 l-4.4 -9.36 l-4.4 9.36 c-0.12 0.2 -0.16 0.2 -0.32 0.2 l-4.56 0 c-0.24 0 -0.4 -0.24 -0.28 -0.48 l6.24 -13.68 l-5.16 -11.72 c-0.08 -0.28 0.08 -0.52 0.32 -0.52 l4.64 0 c0.16 0 0.24 0.12 0.32 0.2 l3.2 7.12 l3.24 -7.12 c0.04 -0.08 0.16 -0.2 0.28 -0.2 z M209.581 37.64 c0.12 0.2 0.56 0.12 0.4 -0.24 l-6 -11.68 l4.84 -9.52 c0.12 -0.24 -0.12 -0.56 -0.4 -0.28 l-4.72 9.28 l-4.76 -9.28 c-0.16 -0.28 -0.72 -0.08 -0.52 0.28 l4.96 9.52 l-6.04 11.68 c-0.12 0.36 0.36 0.44 0.44 0.24 l5.92 -11.4 z M219.81 40 c-0.2 0 -0.32 -0.16 -0.32 -0.36 l0 -25.68 c0 -0.2 0.12 -0.36 0.32 -0.36 l4.56 0 c0.2 0 0.36 0.16 0.36 0.36 l0 25.68 c0 0.2 -0.16 0.36 -0.36 0.36 l-4.56 0 z M221.89 16 l0 21.56 c0 0.36 0.44 0.36 0.44 0 l0 -21.56 c0 -0.28 -0.44 -0.28 -0.44 0 z M237.719 13.600000000000001 c0.2 0 0.36 0.16 0.36 0.36 l0 21 l8.64 0 c0.2 0 0.36 0.16 0.36 0.36 l0 4.32 c0 0.2 -0.16 0.36 -0.36 0.36 l-13.56 0 c-0.2 0 -0.32 -0.16 -0.32 -0.36 l0 -25.68 c0 -0.2 0.12 -0.36 0.32 -0.36 l4.56 0 z M235.23899999999998 16.04 l0 21.52 c0 0.08 0.08 0.2 0.24 0.2 l9.24 0 c0.32 0 0.32 -0.52 0 -0.52 l-9.04 0 l0 -21.2 c0 -0.28 -0.44 -0.32 -0.44 0 z M253.748 40 c-0.2 0 -0.32 -0.16 -0.32 -0.36 l0 -25.68 c0 -0.2 0.12 -0.36 0.32 -0.36 l13.6 0 c0.2 0 0.36 0.16 0.36 0.36 l0 4.28 c0 0.2 -0.16 0.36 -0.36 0.36 l-8.64 0 l0 5.44 l6.72 0 c0.2 0 0.32 0.16 0.32 0.36 l0 4.36 c0 0.2 -0.12 0.36 -0.32 0.36 l-6.72 0 l0 5.88 l8.64 0 c0.2 0 0.36 0.16 0.36 0.36 l0 4.28 c0 0.2 -0.16 0.36 -0.36 0.36 l-13.6 0 z M255.748 16.12 l0 21.28 c0 0.24 0.16 0.32 0.32 0.32 l9.2 0 c0.36 0 0.28 -0.48 0 -0.48 l-9 0 l0 -10.44 l7.36 0 c0.24 0 0.24 -0.56 0 -0.56 l-7.36 0 l0 -9.92 l9 0 c0.28 0 0.36 -0.52 0 -0.52 l-9.2 0 c-0.16 0 -0.32 0.12 -0.32 0.32 z M277.457 40.36 c-1.88 0 -3.48 -1.6 -3.48 -3.56 s1.6 -3.48 3.48 -3.48 c1.96 0 3.6 1.52 3.6 3.48 s-1.64 3.56 -3.6 3.56 z M277.497 38 c0.6 0 1.08 -0.44 1.08 -1.04 s-0.48 -1.04 -1.08 -1.04 s-1.04 0.44 -1.04 1.04 s0.44 1.04 1.04 1.04 z M277.497 36.4 c0.32 0 0.56 0.24 0.56 0.56 c0 0.36 -0.24 0.6 -0.56 0.6 s-0.6 -0.24 -0.6 -0.6 c0 -0.32 0.28 -0.56 0.6 -0.56 z M277.457 30.16 c-1.88 0 -3.48 -1.6 -3.48 -3.56 s1.6 -3.48 3.48 -3.48 c1.96 0 3.6 1.52 3.6 3.48 s-1.64 3.56 -3.6 3.56 z M277.497 27.8 c0.6 0 1.08 -0.44 1.08 -1.04 s-0.48 -1.04 -1.08 -1.04 s-1.04 0.44 -1.04 1.04 s0.44 1.04 1.04 1.04 z M277.497 26.2 c0.32 0 0.56 0.24 0.56 0.56 c0 0.36 -0.24 0.6 -0.56 0.6 s-0.6 -0.24 -0.6 -0.6 c0 -0.32 0.28 -0.56 0.6 -0.56 z M312.755 23.8 c3.04 1.44 7 3.72 7 7.84 c0 1.2 -0.2 3.52 -1.52 5.48 c-1.48 2.2 -3.8 3.28 -7 3.28 c-3.4 0 -7.36 -1.64 -8.6 -5.36 c-0.04 -0.12 0 -0.24 0.12 -0.32 l3.68 -3.16 c0.16 -0.12 0.4 -0.12 0.52 0.08 c0.08 0.2 0.24 0.52 0.44 0.92 c0.6 1.24 2.04 2.48 3.64 2.48 c1.24 0 2.92 -0.68 2.92 -2.6 c0 -1.84 -2.52 -2.88 -4.08 -3.48 c-1.8 -0.72 -3.64 -1.64 -5.2 -3 c-1.64 -1.52 -2.44 -3.2 -2.44 -5.2 c0 -5 4.6 -7.52 8.96 -7.52 c3.44 0 6 1.8 7.68 5.36 c0.08 0.16 0 0.36 -0.12 0.44 l-3.56 2.48 c-0.16 0.08 -0.24 0.08 -0.4 -0.12 c-1.36 -1.96 -2.56 -2.88 -4.16 -2.88 c-0.84 0 -2.8 0.32 -2.8 1.8 c0 1.8 3.32 2.72 4.92 3.48 z M305.475 34.84 c1 2 3.76 3.16 6 3.16 c2.92 0 5.28 -2 5.6 -5.04 c0.4 -3.72 -2.52 -5.32 -5.4 -6.76 l-1.28 -0.56 c-2.96 -1.32 -5.12 -2.32 -5.12 -5.08 c0 -3.04 2.8 -4.44 5.56 -4.44 c2.52 0 3.84 1.48 4.52 2.4 c0.24 0.32 0.64 0.04 0.4 -0.28 c-0.68 -0.84 -2.12 -2.6 -4.92 -2.6 c-3.16 0 -6.04 1.56 -6.04 4.92 c0 3 2.4 4.16 5.44 5.56 l1.24 0.6 c3.96 1.88 5.4 3.64 5.08 6.2 c-0.6 4.08 -3.72 4.6 -5.08 4.6 c-3 0 -5 -1.8 -5.6 -2.92 c-0.2 -0.2 -0.48 0 -0.4 0.24 z M330.624 18.6 l-5.68 0 c-0.2 0 -0.36 -0.16 -0.36 -0.36 l0 -4.28 c0 -0.2 0.16 -0.36 0.36 -0.36 l16.68 0 c0.2 0 0.36 0.16 0.36 0.36 l0 4.28 c0 0.2 -0.16 0.36 -0.36 0.36 l-5.68 0 l0 21.04 c0 0.2 -0.16 0.36 -0.36 0.36 l-4.6 0 c-0.2 0 -0.36 -0.16 -0.36 -0.36 l0 -21.04 z M339.184 15.8 l-12.08 0 c-0.28 0 -0.28 0.52 0 0.52 l5.92 0 l0 21.2 c0 0.28 0.52 0.28 0.52 0 l0 -21.2 l5.64 0 c0.4 0 0.36 -0.52 0 -0.52 z M353.333 13.84 c0.04 -0.12 0.12 -0.24 0.28 -0.24 l4.96 0 c0.16 0 0.24 0.12 0.28 0.24 l6.92 25.72 c0.04 0.24 -0.12 0.44 -0.36 0.44 l-4.56 0 c-0.12 0 -0.24 -0.08 -0.28 -0.24 l-1.56 -5.6 l-5.84 0 l-1.52 5.6 c-0.04 0.16 -0.12 0.24 -0.28 0.24 l-4.6 0 c-0.24 0 -0.4 -0.2 -0.36 -0.44 z M354.45300000000003 29.2 l3.32 0 l-1.72 -6.04 z M360.61300000000006 31.560000000000002 l1.84 6 c0.08 0.24 0.52 0.2 0.4 -0.12 l-6.4 -21.28 c-0.12 -0.52 -0.8 -0.56 -0.92 0 l-6.2 21.28 c-0.12 0.28 0.32 0.4 0.44 0.16 l1.76 -6.04 l9.08 0 z M351.653 31.04 l4.36 -14.72 l4.44 14.72 l-8.8 0 z M381.122 23.8 c3.04 1.44 7 3.72 7 7.84 c0 1.2 -0.2 3.52 -1.52 5.48 c-1.48 2.2 -3.8 3.28 -7 3.28 c-3.4 0 -7.36 -1.64 -8.6 -5.36 c-0.04 -0.12 0 -0.24 0.12 -0.32 l3.68 -3.16 c0.16 -0.12 0.4 -0.12 0.52 0.08 c0.08 0.2 0.24 0.52 0.44 0.92 c0.6 1.24 2.04 2.48 3.64 2.48 c1.24 0 2.92 -0.68 2.92 -2.6 c0 -1.84 -2.52 -2.88 -4.08 -3.48 c-1.8 -0.72 -3.64 -1.64 -5.2 -3 c-1.64 -1.52 -2.44 -3.2 -2.44 -5.2 c0 -5 4.6 -7.52 8.96 -7.52 c3.44 0 6 1.8 7.68 5.36 c0.08 0.16 0 0.36 -0.12 0.44 l-3.56 2.48 c-0.16 0.08 -0.24 0.08 -0.4 -0.12 c-1.36 -1.96 -2.56 -2.88 -4.16 -2.88 c-0.84 0 -2.8 0.32 -2.8 1.8 c0 1.8 3.32 2.72 4.92 3.48 z M373.84200000000004 34.84 c1 2 3.76 3.16 6 3.16 c2.92 0 5.28 -2 5.6 -5.04 c0.4 -3.72 -2.52 -5.32 -5.4 -6.76 l-1.28 -0.56 c-2.96 -1.32 -5.12 -2.32 -5.12 -5.08 c0 -3.04 2.8 -4.44 5.56 -4.44 c2.52 0 3.84 1.48 4.52 2.4 c0.24 0.32 0.64 0.04 0.4 -0.28 c-0.68 -0.84 -2.12 -2.6 -4.92 -2.6 c-3.16 0 -6.04 1.56 -6.04 4.92 c0 3 2.4 4.16 5.44 5.56 l1.24 0.6 c3.96 1.88 5.4 3.64 5.08 6.2 c-0.6 4.08 -3.72 4.6 -5.08 4.6 c-3 0 -5 -1.8 -5.6 -2.92 c-0.2 -0.2 -0.48 0 -0.4 0.24 z M406.59100000000007 24 l0 -10.04 c0 -0.2 0.16 -0.36 0.36 -0.36 l4.56 0 c0.2 0 0.36 0.16 0.36 0.36 l0 25.68 c0 0.2 -0.16 0.36 -0.36 0.36 l-4.56 0 c-0.2 0 -0.36 -0.16 -0.36 -0.36 l0 -10.64 l-6.48 0 l0 10.64 c0 0.2 -0.16 0.36 -0.36 0.36 l-4.56 0 c-0.2 0 -0.32 -0.16 -0.32 -0.36 l0 -25.68 c0 -0.2 0.12 -0.36 0.32 -0.36 l4.56 0 c0.2 0 0.36 0.16 0.36 0.36 l0 10.04 l6.48 0 z M397.19100000000003 37.52 c0 0.32 0.52 0.28 0.52 0 l0 -10.72 l11.24 0 l0 10.72 c0 0.28 0.44 0.32 0.44 0 l0 -21.52 c0 -0.28 -0.44 -0.36 -0.44 0 l0 10.24 l-11.24 0 l0 -10.24 c0 -0.28 -0.52 -0.28 -0.52 0 l0 21.52 z"></path>
  </g>
</svg>
